<?xml version="1.0" encoding="iso-8859-1"?>
<!-- Generator: Adobe Illustrator 19.0.0, SVG Export Plug-In . SVG Version: 6.00 Build 0)  -->
<svg version="1.1" id="Capa_1" xmlns="http://www.w3.org/2000/svg" xmlns:xlink="http://www.w3.org/1999/xlink" x="0px" y="0px"
	 viewBox="0 0 512 512" style="enable-background:new 0 0 512 512;" xml:space="preserve">
<polygon style="fill:#68544F;" points="512,76 512,346 482,376 30,376 0,346 0,76 "/>
<polygon style="fill:#53433F;" points="512,76 512,346 482,376 256,376 256,76 "/>
<rect x="30" y="106" style="fill:#A8EBFA;" width="452" height="270"/>
<rect x="256" y="106" style="fill:#76E2F8;" width="226" height="270"/>
<polygon style="fill:#D2C5C2;" points="329.5,474.401 182.5,474.401 212.5,414.401 299.5,414.401 "/>
<polygon style="fill:#C4B3AF;" points="299.5,414.401 329.5,474.401 256,474.401 256,414.401 "/>
<rect x="151" y="466" style="fill:#EDE9E8;" width="210" height="30"/>
<rect x="256" y="466" style="fill:#DFD7D5;" width="105" height="30"/>
<rect x="271" y="112.6" style="fill:#FF3636;" width="60" height="248.4"/>
<rect x="301" y="112.6" style="fill:#F40000;" width="30" height="248.4"/>
<path style="fill:#FED2A4;" d="M331,112.599L301,16l-30,96.599c9,5.101,18.9,8.401,30,8.401S322,117.7,331,112.599z"/>
<path style="fill:#FFBD86;" d="M301,121c11.1,0,21-3.3,30-8.401L301,16V121z"/>
<polygon style="fill:#FFD400;" points="241,46 241,361 121,361 121,316 151,301 121,286 121,256 151,241 121,226 121,196 151,181 
	121,166 121,136 151,121 121,106 121,46 "/>
<g>
	<rect x="121" y="106" style="fill:#FF9F00;" width="30" height="30"/>
	<rect x="121" y="166" style="fill:#FF9F00;" width="30" height="30"/>
	<rect x="121" y="226" style="fill:#FF9F00;" width="30" height="30"/>
	<rect x="121" y="286" style="fill:#FF9F00;" width="30" height="30"/>
</g>
<rect x="181" y="46" style="fill:#FDBF00;" width="60" height="315"/>
<rect y="346" style="fill:#EDE9E8;" width="512" height="90"/>
<rect x="256" y="346" style="fill:#DFD7D5;" width="256" height="90"/>
<g>
</g>
<g>
</g>
<g>
</g>
<g>
</g>
<g>
</g>
<g>
</g>
<g>
</g>
<g>
</g>
<g>
</g>
<g>
</g>
<g>
</g>
<g>
</g>
<g>
</g>
<g>
</g>
<g>
</g>
</svg>
